[img]http://leetleech.org/images/68408054826166661924.jpg[/img]

[img]http://leetleech.org/images/80466062096578101552.png[/img]
General
Complete name                    : Madagascar 2005 BRrip Eng-Hindi[~HFR~]
Format                           : Matroska
File size                        : 427 MiB
Duration                         : 1h 22mn
Overall bit rate                 : 724 Kbps

Video
ID                               : 1
Format                           : AVC
Format/Info                      : Advanced Video Codec
Format profile                   : Main@L3.0
Format settings, CABAC           : Yes
Format settings, ReFrames        : 4 frames
Muxing mode                      : Header stripping
Codec ID                         : V_MPEG4/ISO/AVC
Duration                         : 1h 22mn
Bit rate                         : 600 Kbps
Width                            : 666 pixels
Height                           : 352 pixels
Display aspect ratio             : 1.892
Frame rate mode                  : Variable
Frame rate                       : 25.000 fps
Color space                      : YUV
Chroma subsampling               : 4:2:0
Bit depth                        : 8 bits
Scan type                        : Progressive
Bits/(Pixel*Frame)               : 0.102
Stream size                      : 343 MiB (80%)
Title                            : [~HFR~]
Language                         : English


Audio #1
ID                               : 2
Format                           : MPEG Audio
Format version                   : Version 2
Format profile                   : Layer 3
Mode                             : Joint stereo
Mode extension                   : MS Stereo
Muxing mode                      : Header stripping
Codec ID                         : A_MPEG/L3
Codec ID/Hint                    : MP3
Duration                         : 1h 22mn
Bit rate mode                    : Constant
Bit rate                         : 64.0 Kbps
Channel(s)                       : 2 channels
Sampling rate                    : 22.05 KHz
Stream size                      : 37.7 MiB (9%)
Title                            : [~HFR~]
Writing library                  : LAME3.98.2
Language                         : Hindi

Audio #2
ID                               : 3
Format                           : MPEG Audio
Format version                   : Version 2
Format profile                   : Layer 3
Mode                             : Joint stereo
Muxing mode                      : Header stripping
Codec ID                         : A_MPEG/L3
Codec ID/Hint                    : MP3
Duration                         : 1h 22mn
Bit rate mode                    : Constant
Bit rate                         : 64.0 Kbps
Channel(s)                       : 2 channels
Sampling rate                    : 22.05 KHz
Stream size                      : 37.7 MiB (9%)
Title                            : [~HFR~]
Writing library                  : LAME3.98.2ªªªªªªYœmþ
Language                         : English

Text
ID                               : 4
Format                           : UTF-8
Codec ID                         : S_TEXT/UTF8
Codec ID/Info                    : UTF-8 Plain Text
Title                            : [~HFR~]
Language                         : English

[img]http://leetleech.org/images/37571685308686837845.png[/img]
At New York's Central Park Zoo, a lion, a zebra, a giraffe, and a hippo are best friends and stars of the show. But when one of the animals goes missing from their cage, the other three break free to look for him, only to find themselves reunited ... on a ship en route to Africa. When their vessel is hijacked, however, the friends, who have all been raised in captivity, learn first-hand what life can be like in the wild.

[img]http://leetleech.org/images/47672446756309998169.png[/img]
[url]http://www.imdb.com/title/tt0351283/[/url]

[img]http://leetleech.org/images/32213758148792891108.png[/img]
Directors: Eric Darnell, Tom McGrath
 Writers: Mark Burton, Billy Frolick,  and 2 more credits » 
Stars: Chris Rock, Ben Stiller and David Schwimmer

[img]http://leetleech.org/images/73962242004612563100.jpg[/img]
Budget: $75,000,000 (estimated) 
Opening Weekend: €522,275 (Netherlands) (19 June 2005) (219 Screens) 
Gross: $238,000,000 (Worldwide) (7 August 2005) (except USA)

[img]http://leetleech.org/images/30968320715484247309.png[/img]
[img]http://leetleech.org/images/69141144120655536590.jpg[/img]
[img]http://leetleech.org/images/01822824597058421370.jpg[/img]
[img]http://leetleech.org/images/59519643027244468089.jpg[/img]
[img]http://leetleech.org/images/30092635483195198185.jpg[/img]
[img]http://leetleech.org/images/96080654745756155599.jpg[/img]

[img]http://leetleech.org/images/85565807790042668303.gif[/img]
[img]http://leetleech.org/images/18843140288135383398.gif[/img]

[img]http://leetleech.org/images/03321443499000046493.gif[/img]